HIERARCHY
ROOT HipCenter
{
    OFFSET 0.0 0.0 -0.0
    CHANNELS 6 Xposition Yposition Zposition Zrotation Xrotation Yrotation
    JOINT Spine
    {
        OFFSET 0.0 10.822683334350586 0.0
        CHANNELS 3 Zrotation Xrotation Yrotation
        JOINT ShoulderCenter
        {
            OFFSET 0.0 39.29853439331055 0.0
            CHANNELS 3 Zrotation Xrotation Yrotation
            JOINT LeftShoulder
            {
                OFFSET 21.754745483398438 0.0 0.0
                CHANNELS 3 Zrotation Xrotation Yrotation
                JOINT LeftElbow
                {
                    OFFSET 29.95451545715332 0.0 0.0
                    CHANNELS 3 Zrotation Xrotation Yrotation
                    JOINT LeftWrist
                    {
                        OFFSET 29.429611206054688 0.0 0.0
                        CHANNELS 3 Zrotation Xrotation Yrotation
                        JOINT LeftHand
                        {
                            OFFSET 4.0628252029418945 0.0 0.0
                            CHANNELS 3 Zrotation Xrotation Yrotation
                            End Site
                            {
                                OFFSET 1.6251301765441895 0.0 0.0
                            }
                        }
                    }
                }
            }
            JOINT RightShoulder
            {
                OFFSET -21.754745483398438 0.0 0.0
                CHANNELS 3 Zrotation Xrotation Yrotation
                JOINT RightElbow
                {
                    OFFSET -29.95451545715332 0.0 0.0
                    CHANNELS 3 Zrotation Xrotation Yrotation
                    JOINT RightWrist
                    {
                        OFFSET -29.429611206054688 0.0 0.0
                        CHANNELS 3 Zrotation Xrotation Yrotation
                        JOINT RightHand
                        {
                            OFFSET -4.0628252029418945 0.0 0.0
                            CHANNELS 3 Zrotation Xrotation Yrotation
                            End Site
                            {
                                OFFSET -1.6251301765441895 0.0 0.0
                            }
                        }
                    }
                }
            }
            End Site
            {
                OFFSET 0.0 15.719412803649902 0.0
            }
        }
    }
    JOINT LeftHip
    {
        OFFSET 14.429569244384766 0.0 0.0
        CHANNELS 3 Zrotation Xrotation Yrotation
        JOINT LeftKnee
        {
            OFFSET 0.0 -42.358497619628906 0.0
            CHANNELS 3 Zrotation Xrotation Yrotation
            JOINT LeftAnkle
            {
                OFFSET 0.0 -45.988258361816406 0.0
                CHANNELS 3 Zrotation Xrotation Yrotation
                JOINT LeftFoot
                {
                    OFFSET 0.0 -12.064796447753906 0.0
                    CHANNELS 3 Zrotation Xrotation Yrotation
                    End Site
                    {
                        OFFSET 0.0 0.0 4.825918197631836
                    }
                }
            }
        }
    }
    JOINT RightHip
    {
        OFFSET -14.429569244384766 0.0 0.0
        CHANNELS 3 Zrotation Xrotation Yrotation
        JOINT RightKnee
        {
            OFFSET 0.0 -42.358497619628906 0.0
            CHANNELS 3 Zrotation Xrotation Yrotation
            JOINT RightAnkle
            {
                OFFSET 0.0 -45.988258361816406 0.0
                CHANNELS 3 Zrotation Xrotation Yrotation
                JOINT RightFoot
                {
                    OFFSET 0.0 -12.064796447753906 0.0
                    CHANNELS 3 Zrotation Xrotation Yrotation
                    End Site
                    {
                        OFFSET 0.0 0.0 4.825918197631836
                    }
                }
            }
        }
    }
}
MOTION
Frames: 4
Frame Time: 0.03333333333333333
-94.80000305175781 0.0 62.5 -4.275857206194879 7.958186464555281 -11.963694103246372 2.930625001107997 0.27740877696466765 -0.006740499436556446 1.19653022187569e-07 4.5754294477615116e-07 -5.736904438450412 96.4913136001852 16.57981083593496 175.99500626515942 3.649618393163574e-06 1.06842405599185e-06 34.09702209256246 179.99999659757384 -58.29643492462937 -148.51997828247096 4.4139062980501586e-32 1.5902773407317584e-15 -3.1805546814635168e-15 -86.71695472890339 23.271237851318915 -179.37016819964063 -1.6868372327323526e-06 -3.1119772802914706e-06 -30.10604424470949 1.629277381416049e-06 -33.351768973193174 -32.00150244493455 3.1805546814635168e-15 -7.156248033292914e-15 1.9862578341225716e-31 -0.2823017869894751 -26.542792033635422 10.8820757823563 12.649740677510733 38.36367525243937 -47.48937637312706 94.7873582076034 -58.851743966375665 142.138215575777 0.0 6.3611093629270335e-15 0.0 8.78654997322403 -29.795351314774305 -10.03504184122781 -11.896447252518984 44.795450071485966 43.04687398950462 -101.85575214309287 -61.278187384844415 -140.09837099771565 -2.648343778830095e-31 6.3611093629270335e-15 4.770832022195275e-15
-95.30000305175781 0.20000000298023224 62.099998474121094 -4.275857721402549 7.958187171404082 -12.484644556336507 2.8557715813755156 0.6047354305748744 -0.006637180611227116 -4.990047833118921e-07 9.532184444030166e-07 -5.0558119880388315 96.55466945681874 17.232348157974503 177.1150131501986 -2.895742728227078e-06 -7.748749894737428e-07 34.12772593109456 179.9999979149078 -58.63292013812496 -147.4668924679874 6.361109362927035e-15 -1.5902773407317584e-15 6.361109362927035e-15 -86.57016908451189 21.002889402450098 -179.26961852763765 2.6062442963234187e-06 -3.445399795554105e-06 -30.281411663398345 -2.944005689495941e-06 -35.470970997309664 -33.08160969223811 1.5902773407317588e-15 -4.4139062980501586e-32 -3.1805546814635176e-15 -0.03900475959542077 -26.37168824614919 10.51613781717049 12.328599231311264 37.94301044846586 -46.72026094576953 94.03251110011709 -58.22752626359188 141.66157660146868 4.4139062980501586e-32 1.5902773407317584e-15 -3.1805546814635168e-15 8.156341227722509 -31.007162795978076 -11.79126723459059 -14.304032842474367 46.22278985233171 46.88999487493786 -104.03281018986128 -63.76149936381815 -142.06243197951324 -3.1805546814635176e-15 2.2069531490250793e-31 -7.951386703658793e-15
-95.9000015258789 0.4000000059604645 61.69999694824219 -4.275857668545907 7.433790885301085 -13.235617670013841 2.6598429476802834 1.4332829179855655 -0.027340031776436544 -2.9047977427506292e-08 9.085623021188136e-07 -4.244070677098512 96.59786594339376 17.960286545212558 177.78831901852686 2.7662332781519096e-07 1.363389305231433e-07 34.58514066846186 -179.99999911749632 -61.986051951900436 -146.75697644163498 -4.4139062980501586e-32 1.5902773407317582e-15 3.1805546814635164e-15 -86.29849662928571 20.011626473034223 -179.079566799081 4.5024300787143e-06 -5.346144716881774e-07 -30.612193839711104 7.239152886400608e-07 -29.78773457218843 -33.897429357558885 -3.1805546814635168e-15 3.975693351829394e-16 5.565970692561154e-15 0.2900452924640588 -25.58094976516707 10.712712856635138 12.426348650837527 37.299143296007244 -47.26893065102705 93.25587351995355 -57.24535680350137 142.10273100018458 0.0 0.0 0.0 7.953633965836593 -30.928298889839326 -12.016031684049372 -17.13500872161303 46.928804870722374 50.13311654419966 -104.71141289620907 -63.17200108590328 -143.53671031287595 0.0 0.0 1.5902773407317584e-15
-96.4000015258789 0.6000000238418579 61.29999923706055 -3.209478149758802 7.442725832136945 -12.670343506199057 1.4724768065022769 1.2691165838092822 -0.015349847669214673 -5.615263222809963e-08 1.3520442456240566e-07 -4.467648566021986 97.1250853192782 17.044961172441866 177.63022131567777 3.240419374948345e-06 8.644843649765883e-08 35.91409563723433 179.9999993204603 -59.859229116454145 -146.26603334819703 0.0 0.0 6.361109362927033e-15 -86.20833022525987 18.61326219265109 -179.25242903687803 -1.3661805417566285e-07 1.8526506010688224e-06 -30.64446686055619 1.4485889705417521e-06 -32.012899899284434 -32.26070518724087 -3.975693351829395e-15 -5.963540027744093e-15 7.951386703658788e-16 -0.7038731454344167 -25.280173919331983 9.369427824541425 11.699034839247103 36.34496770987694 -46.03910135886016 91.13030371809484 -57.76775830679984 140.26645555441422 -3.1805546814635168e-15 -8.827812596100317e-32 3.1805546814635168e-15 5.654070174077686 -31.052328210688515 -12.125534954238704 -17.99100024450911 47.858618471112344 52.6359209178078 -99.54949284583137 -56.31818647552434 -140.50339220745198 0.0 0.0 -1.5902773407317582e-15
